HIERARCHY
ROOT Hips
{
	OFFSET -0.001795 -0.223333 0.028219
	CHANNELS 6 Xposition Yposition Zposition Zrotation Yrotation Xrotation 
	JOINT LeftUpLeg
	{
		OFFSET 0.069520 -0.091406 -0.006815
		CHANNELS 3 Zrotation Yrotation Xrotation
		JOINT LeftLeg
		{
			OFFSET 0.034277 -0.375199 -0.004496
			CHANNELS 3 Zrotation Yrotation Xrotation
			JOINT LeftFoot
			{
				OFFSET -0.013596 -0.397961 -0.043693
				CHANNELS 3 Zrotation Yrotation Xrotation
				JOINT LeftToe
				{
					OFFSET 0.026358 -0.055791 0.119288
					CHANNELS 3 Zrotation Yrotation Xrotation
					End Site
					{
						OFFSET 0.000000 0.000000 0.000000
					}
				}
			}
		}
	}
	JOINT RightUpLeg
	{
		OFFSET -0.067670 -0.090522 -0.004320
		CHANNELS 3 Zrotation Yrotation Xrotation
		JOINT RightLeg
		{
			OFFSET -0.038290 -0.382569 -0.008850
			CHANNELS 3 Zrotation Yrotation Xrotation
			JOINT RightFoot
			{
				OFFSET 0.015774 -0.398415 -0.042312
				CHANNELS 3 Zrotation Yrotation Xrotation
				JOINT RightToe
				{
					OFFSET -0.025372 -0.048144 0.123348
					CHANNELS 3 Zrotation Yrotation Xrotation
					End Site
					{
						OFFSET 0.000000 0.000000 0.000000
					}
				}
			}
		}
	}
	JOINT Spine
	{
		OFFSET -0.002533 0.108963 -0.026696
		CHANNELS 3 Zrotation Yrotation Xrotation
		JOINT Spine1
		{
			OFFSET 0.005487 0.135180 0.001092
			CHANNELS 3 Zrotation Yrotation Xrotation
			JOINT Spine2
			{
				OFFSET 0.001457 0.052922 0.025425
				CHANNELS 3 Zrotation Yrotation Xrotation
				JOINT Neck
				{
					OFFSET -0.002778 0.213870 -0.042857
					CHANNELS 3 Zrotation Yrotation Xrotation
					JOINT Head
					{
						OFFSET 0.005152 0.064970 0.051349
						CHANNELS 3 Zrotation Yrotation Xrotation
						End Site
						{
							OFFSET 0.000000 0.000000 0.000000
						}
					}
				}
				JOINT LeftShoulder
				{
					OFFSET 0.078845 0.121749 -0.034090
					CHANNELS 3 Zrotation Yrotation Xrotation
					JOINT LeftArm
					{
						OFFSET 0.090977 0.030469 -0.008868
						CHANNELS 3 Zrotation Yrotation Xrotation
						JOINT LeftForeArm
						{
							OFFSET 0.259612 -0.012772 -0.027456
							CHANNELS 3 Zrotation Yrotation Xrotation
							JOINT LeftHand
							{
								OFFSET 0.249234 0.008986 -0.001171
								CHANNELS 3 Zrotation Yrotation Xrotation
								End Site
								{
									OFFSET 0.000000 0.000000 0.000000
								}
							}
						}
					}
				}
				JOINT RightShoulder
				{
					OFFSET -0.081759 0.118833 -0.038615
					CHANNELS 3 Zrotation Yrotation Xrotation
					JOINT RightArm
					{
						OFFSET -0.096012 0.032551 -0.009143
						CHANNELS 3 Zrotation Yrotation Xrotation
						JOINT RightForeArm
						{
							OFFSET -0.253742 -0.013329 -0.021401
							CHANNELS 3 Zrotation Yrotation Xrotation
							JOINT RightHand
							{
								OFFSET -0.255298 0.007772 -0.005559
								CHANNELS 3 Zrotation Yrotation Xrotation
								End Site
								{
									OFFSET 0.000000 0.000000 0.000000
								}
							}
						}
					}
				}
			}
		}
	}
}
MOTION
Frames: 10
Frame Time: 0.050000
0.000115 0.958165 -0.020872 -0.483492 -5.467084 -2.297574 2.765533 0.849002 10.842780 -0.672981 0.380857 -9.614597 2.743616 9.288449 15.738507 0.000000 0.000000 0.000000 -5.542365 -0.094835 6.096590 3.448412 -0.368717 -6.292501 1.456864 -4.795952 16.629459 0.000000 0.000000 0.000000 6.485450 -0.509314 5.421580 -5.728078 1.885273 -26.802013 -0.273977 7.670187 32.123912 10.592075 -3.837467 -27.381833 0.000000 0.000000 0.000000 -5.715068 3.418983 -1.896570 -32.936625 -13.187210 -2.596380 74.713050 -50.063903 -36.702860 0.000000 0.000000 0.000000 14.403681 -15.523182 -7.962853 33.701207 15.600932 -1.666692 -68.557894 52.158786 -30.342207 0.000000 0.000000 0.000000 
0.000122 0.958382 -0.021558 -0.466387 -5.392776 -2.437516 2.813263 0.844912 10.856028 -0.727297 0.382716 -9.624662 2.467156 8.859121 15.645344 0.000000 0.000000 0.000000 -5.687934 -0.084126 6.055624 3.448667 -0.369483 -6.214539 1.550795 -4.813441 17.147255 0.000000 0.000000 0.000000 6.369118 -0.519284 5.613604 -5.636396 1.867566 -26.721777 -0.302983 7.407775 31.945552 10.448374 -3.850730 -27.038172 0.000000 0.000000 0.000000 -5.696012 3.484501 -1.905000 -32.990039 -13.422719 -2.545067 75.397865 -48.023679 -35.428162 0.000000 0.000000 0.000000 14.062330 -15.408323 -7.876865 33.371888 15.482743 -1.666613 -71.747193 50.914800 -31.419008 0.000000 0.000000 0.000000 
0.000014 0.958769 -0.022354 -0.427879 -5.489953 -2.484292 2.858487 0.826318 10.643912 -0.761314 0.375176 -9.356422 2.322328 8.633050 15.696163 0.000000 0.000000 0.000000 -5.776324 -0.068841 5.903982 3.583675 -0.373269 -6.084808 1.544039 -4.940801 17.420448 0.000000 0.000000 0.000000 6.224416 -0.527446 5.788902 -5.489630 1.832184 -26.815677 -0.222269 7.463328 31.900938 10.409022 -3.891661 -26.683237 0.000000 0.000000 0.000000 -5.591093 3.539769 -1.913966 -33.033419 -13.742862 -2.476852 75.542973 -46.218395 -34.084162 0.000000 0.000000 0.000000 14.183979 -15.637487 -8.023168 33.384489 15.257216 -1.717824 -74.691377 50.688567 -32.990191 0.000000 0.000000 0.000000 
-0.000188 0.959136 -0.023196 -0.516881 -5.402822 -2.535832 3.013679 0.808342 10.618089 -0.808003 0.377091 -9.377990 2.193698 8.454061 15.723610 0.000000 0.000000 0.000000 -5.654985 -0.083884 5.940166 3.705948 -0.379424 -6.189347 1.467502 -5.212597 17.868906 0.000000 0.000000 0.000000 6.036425 -0.530060 5.920634 -5.197076 1.766708 -26.854861 -0.140617 7.369869 31.873012 10.407312 -3.909889 -26.635936 0.000000 0.000000 0.000000 -5.354987 3.469558 -1.853438 -33.407172 -13.911474 -2.460342 75.807740 -44.928308 -33.179702 0.000000 0.000000 0.000000 14.175065 -15.624283 -8.018691 33.886376 14.965723 -1.789962 -77.040578 50.837341 -34.478975 0.000000 0.000000 0.000000 
-0.000418 0.959247 -0.024048 -0.625692 -5.395454 -2.534838 3.184841 0.781536 10.476132 -0.789029 0.375408 -9.354954 2.066465 8.273142 15.789105 0.000000 0.000000 0.000000 -5.358559 -0.113389 6.027685 3.531719 -0.373375 -6.341147 1.420734 -5.319468 17.955881 0.000000 0.000000 0.000000 5.943796 -0.534475 6.017362 -5.227875 1.774874 -26.728420 0.017991 7.193407 31.732952 10.344871 -3.913334 -26.538070 0.000000 0.000000 0.000000 -5.353066 3.514209 -1.861429 -33.513934 -14.076725 -2.418291 76.301587 -44.044492 -32.691608 0.000000 0.000000 0.000000 14.407368 -15.592318 -8.068807 34.702717 14.430126 -1.910897 -78.653353 51.370232 -35.915393 0.000000 0.000000 0.000000 
-0.000597 0.959274 -0.024847 -0.785632 -5.337421 -2.377589 3.481238 0.729909 10.179157 -0.917842 0.379445 -9.343589 2.189083 8.456254 15.731300 0.000000 0.000000 0.000000 -5.138998 -0.133728 6.055568 3.587567 -0.376867 -6.571566 1.301012 -5.514625 17.982356 0.000000 0.000000 0.000000 5.847613 -0.538635 6.075522 -5.058203 1.734631 -26.862890 0.055241 7.160131 31.754273 10.344386 -3.932277 -26.424138 0.000000 0.000000 0.000000 -5.315530 3.298421 -1.769719 -33.993799 -14.082772 -2.442191 77.897469 -43.445515 -33.079711 0.000000 0.000000 0.000000 14.848189 -15.566445 -8.129781 35.856878 14.050324 -2.038201 -80.758078 52.438182 -38.015958 0.000000 0.000000 0.000000 
-0.000678 0.959187 -0.025472 -0.839635 -5.233316 -2.316092 3.666486 0.703673 10.079346 -1.061265 0.391214 -9.560176 2.188029 8.467273 15.725405 0.000000 0.000000 0.000000 -4.994563 -0.151977 6.145175 3.467332 -0.374753 -6.894455 1.326255 -5.428500 17.910403 0.000000 0.000000 0.000000 5.710759 -0.539994 6.146375 -5.107965 1.744475 -26.811465 0.193905 6.906572 31.494135 10.083034 -3.772893 -26.556546 0.000000 0.000000 0.000000 -5.420198 3.307199 -1.775549 -34.549962 -14.377044 -2.377582 79.752644 -43.115131 -33.741270 0.000000 0.000000 0.000000 15.188065 -15.412126 -8.137834 37.099498 13.641620 -2.142526 -82.091896 53.546628 -39.824720 0.000000 0.000000 0.000000 
-0.000575 0.959137 -0.025909 -0.859696 -5.494979 -2.159522 3.648457 0.695308 9.879040 -0.981576 0.394494 -9.692142 2.304971 8.618046 15.767596 0.000000 0.000000 0.000000 -4.845752 -0.156295 6.118920 3.351260 -0.368775 -7.210036 1.553537 -5.063896 17.834953 0.000000 0.000000 0.000000 5.571480 -0.511089 5.860295 -4.969621 1.709244 -26.825772 0.307856 7.066668 31.559121 10.009953 -3.764257 -26.339231 0.000000 0.000000 0.000000 -5.334768 3.202988 -1.723338 -35.466210 -14.537828 -2.377562 81.422813 -42.267151 -33.879692 0.000000 0.000000 0.000000 15.786922 -15.332750 -8.204977 38.429331 13.530947 -2.203664 -83.023744 55.131672 -41.740488 0.000000 0.000000 0.000000 
-0.000386 0.959085 -0.026224 -0.855236 -5.644163 -2.043090 3.517855 0.702013 9.793562 -0.929090 0.395351 -9.741020 2.441825 8.804123 15.758593 0.000000 0.000000 0.000000 -4.872585 -0.145568 6.039946 3.323518 -0.366393 -7.443206 1.823077 -4.706916 18.032871 0.000000 0.000000 0.000000 5.539983 -0.503150 5.762822 -5.020662 1.718624 -26.796266 0.587869 7.335451 31.606876 9.878409 -3.576926 -26.751633 0.000000 0.000000 0.000000 -5.535380 3.083894 -1.711169 -36.675838 -15.192448 -2.244412 83.470285 -41.932114 -34.703419 0.000000 0.000000 0.000000 16.464332 -15.515378 -8.398948 40.410685 13.674715 -2.194761 -84.135177 56.606546 -43.528380 0.000000 0.000000 0.000000 
-0.000239 0.958814 -0.026541 -0.808946 -5.837872 -1.938469 3.349020 0.715803 9.746490 -0.688281 0.384090 -9.631672 2.448493 8.741773 15.516964 0.000000 0.000000 0.000000 -4.837126 -0.134781 5.859578 3.178947 -0.360741 -7.674310 2.034893 -4.420574 18.123744 0.000000 0.000000 0.000000 5.516118 -0.480614 5.491661 -5.031091 1.717746 -26.864194 0.646004 7.420342 31.842557 9.767793 -3.497683 -26.892061 0.000000 0.000000 0.000000 -5.830192 2.751827 -1.603434 -37.725975 -15.534715 -2.197257 85.215190 -41.364152 -35.050634 0.000000 0.000000 0.000000 17.008048 -15.281099 -8.371280 42.068668 14.011246 -2.121911 -84.524343 57.658177 -44.580046 0.000000 0.000000 0.000000 
